<?xml version="1.0" standalone="no"?>
<!DOCTYPE svg PUBLIC "-//W3C//DTD SVG 20010904//EN"
 "http://www.w3.org/TR/2001/REC-SVG-20010904/DTD/svg10.dtd">
<svg version="1.0" xmlns="http://www.w3.org/2000/svg"
 width="5000.000000pt" height="5000.000000pt" viewBox="0 0 5000.000000 5000.000000"
 preserveAspectRatio="xMidYMid meet">
<metadata>
Created by potrace 1.14, written by Peter Selinger 2001-2017
</metadata>
<g transform="translate(0.000000,5000.000000) scale(0.100000,-0.100000)"
fill="#000000" stroke="none">
<path d="M0 25000 l0 -25000 25000 0 25000 0 0 25000 0 25000 -25000 0 -25000
0 0 -25000z m6210 -10401 c0 -3722 4 -6509 9 -6507 12 4 4894 4865 4965 4943
33 36 57 67 55 69 -2 2 -340 41 -751 87 l-748 84 0 818 0 817 3015 0 3015 0 0
-817 0 -818 -743 -139 c-408 -76 -813 -152 -900 -168 l-157 -30 -1971 -1980
c-1083 -1089 -1969 -1984 -1967 -1988 2 -7 4750 -6030 4818 -6112 13 -15 173
-42 990 -168 536 -82 990 -152 1008 -155 l32 -6 0 -814 0 -815 -3160 0 -3160
0 0 814 0 814 33 5 c17 3 329 40 692 82 363 42 668 80 678 83 14 6 -312 432
-1773 2317 -984 1271 -1793 2310 -1797 2310 -4 0 -497 -491 -1095 -1091
l-1088 -1091 0 -1126 c0 -620 3 -1127 6 -1127 7 0 2039 -348 2077 -356 l27 -6
0 -814 0 -814 -3385 0 -3385 0 0 815 c0 448 2 815 3 815 2 0 475 81 1051 180
576 99 1049 180 1052 180 2 0 4 3648 4 8108 l0 8107 -1052 181 -1053 181 -3
821 -2 822 2330 0 2330 0 0 -6511z m32330 2586 c0 -2159 3 -3925 8 -3925 4 1
41 47 82 103 191 259 489 574 731 774 642 528 1342 836 2199 967 488 75 1070
86 1570 30 1393 -155 2542 -848 3388 -2042 775 -1093 1257 -2582 1397 -4312
55 -690 59 -1675 9 -2300 -167 -2100 -936 -3765 -2209 -4784 -774 -620 -1626
-949 -2700 -1042 -238 -21 -775 -24 -1000 -6 -710 57 -1311 215 -1848 483
-643 322 -1193 802 -1633 1424 -47 66 -89 127 -94 135 -5 8 -11 12 -13 10 -2
-3 -54 -399 -115 -880 -62 -481 -115 -885 -118 -897 l-4 -23 -1095 0 -1095 0
-2 9102 -3 9102 -1052 180 -1053 181 0 823 0 822 2325 0 2325 0 0 -3925z
m-13245 2821 c748 -70 1378 -256 1952 -577 620 -347 1109 -789 1474 -1334 328
-487 512 -983 596 -1595 26 -195 26 -783 0 -985 -98 -747 -334 -1302 -799
-1881 -337 -420 -795 -866 -1331 -1296 -210 -170 -435 -338 -1224 -917 -392
-287 -715 -525 -717 -530 -3 -4 985 -1199 2196 -2655 1767 -2126 2203 -2645
2213 -2634 6 7 39 58 72 113 427 714 749 1559 908 2388 84 442 114 727 141
1370 l6 137 1135 0 1136 0 -7 -232 c-34 -1162 -210 -2118 -566 -3078 -310
-835 -734 -1591 -1282 -2284 l-118 -149 29 -36 c16 -20 556 -673 1199 -1451
l1169 -1415 -13 -30 -12 -30 -1479 -3 -1480 -2 -547 657 c-302 362 -552 659
-557 661 -5 2 -62 -35 -126 -81 -966 -694 -2069 -1155 -3273 -1371 -1052 -188
-2212 -176 -3230 35 -1405 291 -2587 992 -3373 2002 -332 426 -602 935 -771
1456 -195 599 -281 1250 -255 1929 37 943 322 1766 863 2492 524 702 1340
1453 2351 2162 173 121 387 264 407 270 15 6 31 -18 -243 345 -249 329 -367
493 -554 773 -755 1127 -1070 1894 -1167 2840 -17 161 -16 736 1 935 102 1199
500 2120 1218 2815 743 720 1781 1123 3088 1200 208 12 777 4 970 -14z"/>
<path d="M41591 13100 c-739 -39 -1327 -241 -1854 -637 -462 -347 -845 -802
-1140 -1354 l-57 -107 0 -3093 0 -3092 65 -124 c261 -492 577 -887 985 -1229
517 -433 1038 -649 1800 -746 167 -21 788 -18 960 5 282 38 447 72 650 134
710 217 1243 643 1649 1318 406 673 639 1473 727 2485 22 251 31 1172 15 1519
-33 717 -121 1348 -266 1916 -200 783 -480 1385 -875 1880 -122 153 -366 400
-500 508 -278 221 -614 395 -953 493 -351 101 -787 146 -1206 124z"/>
<path d="M24497 18020 c-766 -74 -1308 -455 -1657 -1165 -177 -360 -266 -717
-289 -1161 -42 -803 205 -1536 844 -2499 161 -244 461 -656 540 -743 10 -11
184 105 931 619 506 348 960 662 1009 697 310 222 576 490 738 743 191 297
323 697 373 1129 24 205 24 522 0 664 -65 397 -243 737 -551 1055 -354 365
-775 573 -1315 647 -127 17 -501 26 -623 14z"/>
<path d="M23190 9369 c-359 -262 -461 -338 -610 -458 -590 -473 -1016 -945
-1248 -1381 -179 -337 -334 -782 -396 -1140 -53 -302 -45 -724 20 -1105 148
-874 628 -1635 1323 -2096 492 -327 1105 -511 1866 -559 1147 -72 2301 225
3370 868 221 133 529 346 523 361 -6 16 -4670 5631 -4677 5630 -3 0 -80 -54
-171 -120z"/>
</g>
</svg>
